# xmcd
#
# Track frame offsets:
#	150
#	28899
#	54634
#	72373
#	90885
#	121046
#	143455
#	161771
#	184292
#	198060
#	220505
#	240421
#	260936
#
# Disc length: 3767 seconds
#
# Revision: 1
# Processed by: cddbd v1.5.2PL0 Copyright (c) Steve Scherf et al.
# Submitted via: audiograbber 1.83.01
#
DISCID=af0eb50d
DTITLE=JACK INGRAM - MIDNIGHT MOTEL
DYEAR=2016
DGENRE=Country
TTITLE0=OLD MOTEL
TTITLE1=IT'S ALWAYS GONNA RAIN
TTITLE2=I FEEL LIKE DRINKING TONIGHT
TTITLE3=THE STORY OF BLAINE
TTITLE4=BLAINE'S FERRIS WHEEL
TTITLE5=NOTHING TO FIX
TTITLE6=WHATS A BOY TO DO
TTITLE7=TRYING
TTITLE8=CHAMPION OF THE WORLD
TTITLE9=I'M DRINKING THROUGH IT
TTITLE10=CAN'T GET ANY BETTER THAN THIS
TTITLE11=ALL OVER AGAIN
TTITLE12=OLD MOTEL (ACOUSTIC VERSION)
EXTD=
EXTT0=
EXTT1=
EXTT2=
EXTT3=
EXTT4=
EXTT5=
EXTT6=
EXTT7=
EXTT8=
EXTT9=
EXTT10=
EXTT11=
EXTT12=
PLAYORDER=
